<svg width="1440" height="371" viewBox="0 0 1440 371" fill="none" xmlns="http://www.w3.org/2000/svg">
<g clip-path="url(#clip0_116_1078)">
<path d="M1440 255.984L0 371V1H1440V255.984Z" fill="url(#paint0_linear_116_1078)"/>
<path d="M191 371C191 371 261.75 285.169 324.388 274.455C382.111 264.581 415.481 335.001 469.714 312.21C539.831 282.743 456.534 135.276 530.958 121.277C574.962 113 593.337 168.056 637.876 163.886C702.683 157.819 692.946 59.3521 755.694 41.4519C808.361 26.4274 840.44 76.9643 893.753 64.6443C939.188 54.1448 996 1 996 1" stroke="#DDDAC8"/>
<g filter="url(#filter0_i_116_1078)">
<ellipse cx="18.5812" cy="37.0684" rx="140.395" ry="131.182" transform="rotate(-164.989 18.5812 37.0684)" fill="url(#paint1_radial_116_1078)" fill-opacity="0.15"/>
</g>
<path d="M52.8987 -90.9083C-22.613 -111.157 -99.32 -70.395 -118.295 0.364479C-137.269 71.124 -91.2481 144.796 -15.7364 165.045C59.7754 185.294 136.482 144.532 155.457 73.7722C174.431 3.01275 128.41 -70.6595 52.8987 -90.9083Z" stroke="url(#paint2_radial_116_1078)" stroke-width="2.63241"/>
</g>
<defs>
<filter id="filter0_i_116_1078" x="-123.885" y="-97.4146" width="284.932" height="271.598" filterUnits="userSpaceOnUse" color-interpolation-filters="sRGB">
<feFlood flood-opacity="0" result="BackgroundImageFix"/>
<feBlend mode="normal" in="SourceGraphic" in2="BackgroundImageFix" result="shape"/>
<feColorMatrix in="SourceAlpha" type="matrix" values="0 0 0 0 0 0 0 0 0 0 0 0 0 0 0 0 0 0 127 0" result="hardAlpha"/>
<feOffset dy="4"/>
<feGaussianBlur stdDeviation="1.31621"/>
<feComposite in2="hardAlpha" operator="arithmetic" k2="-1" k3="1"/>
<feColorMatrix type="matrix" values="0 0 0 0 0 0 0 0 0 0 0 0 0 0 0 0 0 0 0.25 0"/>
<feBlend mode="normal" in2="shape" result="effect1_innerShadow_116_1078"/>
</filter>
<linearGradient id="paint0_linear_116_1078" x1="0" y1="186" x2="1440" y2="186" gradientUnits="userSpaceOnUse">
<stop stop-color="#064D51"/>
<stop offset="1"/>
</linearGradient>
<radialGradient id="paint1_radial_116_1078" cx="0" cy="0" r="1" gradientUnits="userSpaceOnUse" gradientTransform="translate(38.6377 147.288) rotate(-89.3434) scale(241.417 280.292)">
<stop stop-color="#919191"/>
<stop offset="1" stop-color="#5F5F5F" stop-opacity="0"/>
</radialGradient>
<radialGradient id="paint2_radial_116_1078" cx="0" cy="0" r="1" gradientUnits="userSpaceOnUse" gradientTransform="translate(98.9259 143.323) rotate(-126.562) scale(236.117 213.094)">
<stop stop-color="#BCB691" stop-opacity="0"/>
<stop offset="0.0001" stop-color="#070707" stop-opacity="0"/>
<stop offset="0.465" stop-color="#E5E2CF" stop-opacity="0.987786"/>
<stop offset="0.673222" stop-color="#E7E4D1"/>
<stop offset="1" stop-opacity="0"/>
</radialGradient>
<clipPath id="clip0_116_1078">
<rect width="1440" height="371" fill="white"/>
</clipPath>
</defs>
</svg>
