<svg width="45" height="17" viewBox="0 0 45 17" fill="none" xmlns="http://www.w3.org/2000/svg">
<g clip-path="url(#clip0_237_1435)">
<path fill-rule="evenodd" clip-rule="evenodd" d="M41.521 0.0222168L44.5002 6.15452L38.2339 12.2905L38.9787 9.50783L42.4054 6.15452L40.7762 2.80121L41.521 0.0222168Z" fill="#0E8635"/>
<path fill-rule="evenodd" clip-rule="evenodd" d="M39.4259 0.0222168L42.4051 6.15452L36.1353 12.2905L39.4259 0.0222168Z" fill="#E97208"/>
<path d="M0.958376 14.6175H1.30571L0.983441 16.007C0.936892 16.2145 0.944053 16.3701 1.01209 16.4738C1.07654 16.5776 1.20187 16.6295 1.3809 16.6295C1.55994 16.6295 1.70317 16.5776 1.81775 16.4738C1.93233 16.3701 2.01111 16.2145 2.06124 16.007L2.38351 14.6175H2.73442L2.40141 16.044C2.3298 16.3553 2.20089 16.585 2.01827 16.7406C1.83565 16.8963 1.59575 16.9704 1.29855 16.9704C1.00135 16.9704 0.797244 16.8925 0.686241 16.7406C0.575238 16.5887 0.557335 16.3553 0.628949 16.044L0.958376 14.6175ZM34.1732 12.2387H31.8171L35.0935 0H37.4496L34.1732 12.2387ZM14.5866 11.4717C14.4577 11.9534 14.028 12.2942 13.5446 12.2942H1.39523C1.06222 12.2942 0.815147 12.1757 0.654014 11.9459C0.492882 11.7125 0.457074 11.4235 0.553754 11.0789L3.51502 0.0333479H5.87114L3.22856 9.90061H12.6566L15.3028 0.0333479H17.6589L14.5866 11.4717ZM32.9522 0.385353C32.7911 0.151918 32.5368 0.0370532 32.1967 0.0370532H19.2452L18.6078 2.4381H30.3884L29.7009 4.99847H20.2728V4.99106H17.9167L15.9616 12.298H18.3178L19.6283 7.39581H30.2201C30.5531 7.39581 30.8646 7.28095 31.1547 7.04752C31.4447 6.81408 31.6381 6.52507 31.7276 6.18047L33.0381 1.27833C33.1456 0.911508 33.1133 0.618788 32.9522 0.385353ZM42.681 16.9074L43.211 14.6175H44.4141L44.3425 14.9324H43.4903L43.3578 15.5068H44.21L44.1348 15.8328H43.2826L43.1107 16.5739H43.9629L43.8877 16.9074H42.681ZM42.6452 15.1733C42.5665 15.0844 42.4769 15.0177 42.3767 14.9732C42.2764 14.9287 42.1654 14.9065 42.0437 14.9065C41.8073 14.9065 41.5961 14.988 41.4135 15.1473C41.2273 15.3067 41.1055 15.5179 41.0482 15.7735C40.9909 16.0218 41.016 16.2256 41.1234 16.3849C41.2308 16.5442 41.392 16.6258 41.614 16.6258C41.7429 16.6258 41.8682 16.5998 41.9935 16.5517C42.1189 16.5035 42.2478 16.4294 42.3767 16.333L42.28 16.7554C42.169 16.8259 42.0544 16.8814 41.9362 16.9148C41.8181 16.9481 41.6928 16.9667 41.5638 16.9667C41.3991 16.9667 41.2523 16.937 41.127 16.8814C41.0017 16.8259 40.8978 16.7406 40.8155 16.6295C40.7367 16.522 40.683 16.3923 40.6615 16.2441C40.64 16.0959 40.6472 15.9366 40.6866 15.7698C40.726 15.6031 40.7904 15.4438 40.8799 15.2956C40.9694 15.1473 41.084 15.0177 41.2165 14.9065C41.349 14.7953 41.4922 14.7101 41.6426 14.6508C41.793 14.5915 41.9506 14.5656 42.1117 14.5656C42.237 14.5656 42.3552 14.5841 42.459 14.6249C42.5629 14.6657 42.6631 14.7249 42.7527 14.8027L42.6452 15.1733ZM39.9919 16.9074L39.8845 16.3182H39.0287L38.642 16.9074H38.2732L39.8702 14.5248L40.3643 16.9074H39.9919ZM39.2292 16.007H39.8308L39.7305 15.4845C39.7269 15.4512 39.7198 15.4141 39.7162 15.3697C39.7126 15.3252 39.709 15.277 39.709 15.2252C39.684 15.2733 39.6625 15.3215 39.6374 15.366C39.6159 15.4104 39.5909 15.4475 39.5694 15.4845L39.2292 16.007ZM37.0915 16.9074L37.6215 14.6175H38.8246L38.753 14.9324H37.9008L37.7683 15.5031H38.6205L38.5453 15.8291H37.6931L37.4424 16.9074H37.0915ZM35.9636 15.8847L35.7273 16.9111H35.3978L35.9278 14.6212H36.4183C36.5616 14.6212 36.669 14.6323 36.7442 14.6508C36.8194 14.6694 36.8803 14.7027 36.9232 14.7509C36.9769 14.8065 37.0127 14.8769 37.0271 14.9658C37.0414 15.0547 37.0378 15.151 37.0163 15.2548C36.9734 15.4401 36.8982 15.5809 36.7907 15.6846C36.6833 15.7884 36.5437 15.8514 36.379 15.8699L36.8803 16.9111H36.4828L36.003 15.8847H35.9636ZM36.0531 15.592H36.1176C36.3038 15.592 36.4327 15.5697 36.5043 15.5216C36.5759 15.4771 36.626 15.3956 36.6511 15.277C36.6797 15.151 36.669 15.0621 36.6153 15.0102C36.5616 14.9584 36.447 14.9324 36.2715 14.9324H36.2071L36.0531 15.592ZM33.7937 16.9074L34.3236 14.6175H35.5267L35.4551 14.9324H34.6029L34.4704 15.5068H35.3226L35.2474 15.8328H34.3952L34.2234 16.5739H35.0756L34.9968 16.9074H33.7937ZM33.4105 14.9324L32.9522 16.9074H32.6013L33.0596 14.9324H32.4867L32.5583 14.6175H34.0515L33.9799 14.9324H33.4105ZM29.8334 16.9074L30.3848 14.5248L31.4304 15.9255C31.459 15.9662 31.4877 16.007 31.5127 16.0514C31.5414 16.0959 31.57 16.1478 31.5987 16.2034L31.9675 14.6138H32.2933L31.7419 16.9926L30.6713 15.566C30.6426 15.529 30.6176 15.4882 30.5925 15.4438C30.5674 15.3993 30.5459 15.3548 30.5245 15.3104L30.1556 16.9037H29.8334V16.9074ZM28.9776 16.9074L29.5075 14.6175H29.8584L29.3285 16.9074H28.9776ZM26.3851 16.4479L26.6967 16.3108C26.7002 16.4146 26.7289 16.4924 26.7898 16.5442C26.847 16.5961 26.933 16.6258 27.044 16.6258C27.1478 16.6258 27.2373 16.5961 27.3125 16.5331C27.3877 16.4701 27.4379 16.3886 27.4629 16.2849C27.4952 16.1515 27.4164 16.0292 27.2302 15.9255C27.2051 15.9106 27.1836 15.8995 27.1693 15.8921C26.9616 15.7698 26.8256 15.6587 26.7719 15.5586C26.7146 15.4586 26.7038 15.3363 26.7396 15.1918C26.7826 15.0065 26.8757 14.8546 27.0225 14.7398C27.1693 14.6249 27.3376 14.5656 27.531 14.5656C27.6885 14.5656 27.8138 14.599 27.9069 14.6619C28 14.7286 28.0502 14.8213 28.0645 14.9435L27.7566 15.0955C27.7279 15.0251 27.6957 14.9695 27.6491 14.9361C27.6062 14.9028 27.5489 14.888 27.4844 14.888C27.3913 14.888 27.309 14.9139 27.2409 14.9658C27.1729 15.0177 27.1299 15.0881 27.1084 15.177C27.0762 15.3141 27.1693 15.4438 27.3842 15.5623C27.4021 15.5735 27.4128 15.5772 27.4235 15.5846C27.6133 15.6883 27.7351 15.7921 27.7924 15.8921C27.8497 15.9922 27.8604 16.1144 27.8246 16.2663C27.7745 16.485 27.6706 16.6554 27.5131 16.7851C27.3555 16.9111 27.1657 16.9778 26.9473 16.9778C26.7647 16.9778 26.6215 16.9333 26.5284 16.8444C26.4317 16.7443 26.3851 16.6184 26.3851 16.4479ZM26.0199 14.9324L25.5651 16.9074H25.2142L25.6726 14.9324H25.0997L25.1749 14.6175H26.668L26.5964 14.9324H26.0199ZM22.4428 16.9074L22.9942 14.5248L24.0398 15.9255C24.0684 15.9662 24.097 16.007 24.1221 16.0514C24.1508 16.0959 24.1794 16.1478 24.2081 16.2034L24.5769 14.6138H24.9027L24.3513 16.9926L23.2806 15.566C23.252 15.529 23.2269 15.4882 23.2019 15.4438C23.1768 15.3993 23.1553 15.3548 23.1338 15.3104L22.765 16.9037H22.4428V16.9074ZM20.835 16.9074L21.365 14.6175H22.5681L22.4965 14.9324H21.6442L21.5118 15.5068H22.364L22.2888 15.8328H21.4366L21.2647 16.5739H22.1169L22.0381 16.9074H20.835ZM20.2513 15.7772C20.2513 15.7587 20.2549 15.7105 20.2657 15.629C20.2728 15.5623 20.28 15.5068 20.2836 15.4623C20.2621 15.5142 20.237 15.566 20.2084 15.6179C20.1797 15.6698 20.1475 15.7217 20.1117 15.7772L19.2631 16.9963L18.9873 15.7513C18.9766 15.6994 18.9659 15.6513 18.9623 15.6031C18.9551 15.5549 18.9515 15.5068 18.9515 15.4623C18.9408 15.5105 18.9229 15.5586 18.905 15.6142C18.8871 15.6661 18.8656 15.7217 18.837 15.781L18.3428 16.9074H18.0206L19.084 14.5174L19.3848 15.9625C19.3884 15.9847 19.3956 16.0255 19.4027 16.0774C19.4099 16.1292 19.4206 16.1959 19.4314 16.2738C19.4672 16.2071 19.5173 16.1255 19.5853 16.0218C19.6032 15.9959 19.6176 15.9736 19.6247 15.9588L20.5808 14.5137L20.5485 16.9037H20.2299L20.2513 15.7772ZM16.9069 16.9074L17.1504 15.8588L16.71 14.6175H17.0788L17.351 15.3956C17.3581 15.4141 17.3653 15.4438 17.3724 15.4734C17.3796 15.5068 17.3903 15.5401 17.3975 15.5772C17.419 15.5401 17.4441 15.5068 17.4655 15.4734C17.487 15.4401 17.5121 15.4104 17.5336 15.3845L18.1745 14.6175H18.5254L17.4942 15.8588L17.2507 16.9074H16.9069ZM16.0332 16.9074L15.9258 16.3182H15.07L14.6833 16.9074H14.3145L15.9115 14.5248L16.4056 16.9074H16.0332ZM15.2706 16.007H15.8721L15.7719 15.4845C15.7683 15.4512 15.7611 15.4141 15.7575 15.3697C15.754 15.3252 15.7504 15.277 15.7504 15.2252C15.7289 15.2733 15.7038 15.3215 15.6788 15.366C15.6573 15.4104 15.6322 15.4475 15.6107 15.4845L15.2706 16.007ZM13.7344 15.881L13.4981 16.9111H13.1687L13.6986 14.6212H14.2286C14.3861 14.6212 14.5007 14.6286 14.5687 14.6471C14.6368 14.6656 14.6976 14.6953 14.7406 14.7361C14.7943 14.7879 14.8337 14.862 14.848 14.951C14.8659 15.0399 14.8623 15.1399 14.8373 15.2474C14.8122 15.3548 14.7692 15.4549 14.712 15.5475C14.6511 15.6401 14.5831 15.7105 14.5043 15.7624C14.4398 15.8032 14.3682 15.8328 14.2894 15.8514C14.2107 15.8699 14.0925 15.8773 13.9349 15.8773H13.7344V15.881ZM13.8239 15.5735H13.9135C14.1068 15.5735 14.2429 15.5512 14.3181 15.5068C14.3933 15.4623 14.4434 15.3845 14.472 15.2696C14.5007 15.1473 14.4864 15.0621 14.4291 15.0102C14.3718 14.9584 14.25 14.9361 14.0638 14.9361H13.9743L13.8239 15.5735ZM10.0212 16.9074L10.5512 14.6175H11.0238C11.3317 14.6175 11.543 14.6323 11.6612 14.6657C11.7793 14.699 11.876 14.7546 11.9512 14.8324C12.0515 14.9324 12.1159 15.0621 12.1446 15.2214C12.1732 15.3808 12.1625 15.5623 12.1159 15.7661C12.0694 15.9699 11.9942 16.1515 11.8939 16.3071C11.7937 16.4627 11.6683 16.5924 11.5215 16.6962C11.4105 16.774 11.2888 16.8296 11.1599 16.8629C11.031 16.8962 10.8412 16.9111 10.587 16.9111H10.0212V16.9074ZM10.4509 16.5702H10.7445C10.9056 16.5702 11.031 16.5591 11.1169 16.5368C11.2028 16.5146 11.2816 16.4738 11.3568 16.422C11.4571 16.3479 11.5394 16.2552 11.6039 16.1441C11.6719 16.0329 11.722 15.9069 11.7543 15.7587C11.7865 15.6142 11.7972 15.4845 11.7829 15.3734C11.7686 15.2622 11.7292 15.1696 11.6648 15.0955C11.6146 15.0399 11.5538 15.0028 11.4714 14.9806C11.3926 14.9584 11.2601 14.9473 11.0811 14.9473H10.8269L10.4509 16.5702ZM8.41346 16.9074L8.9434 14.6175H10.1465L10.0749 14.9324H9.2227L9.09021 15.5068H9.94243L9.86723 15.8328H9.01502L8.84314 16.5739H9.69536L9.61658 16.9074H8.41346ZM7.55766 16.9074L8.08761 14.6175H8.43852L7.90857 16.9074H7.55766ZM5.96782 16.9074L6.49776 14.6175H7.70089L7.62928 14.9324H6.77706L6.64457 15.5031H7.49679L7.42159 15.8291H6.56938L6.31873 16.9074H5.96782ZM5.1156 16.9074L5.64555 14.6175H5.99646L5.46651 16.9074H5.1156ZM2.68429 16.9074L3.23572 14.5248L4.28129 15.9255C4.30994 15.9662 4.33858 16.007 4.36365 16.0514C4.3923 16.0959 4.42094 16.1478 4.44959 16.2034L4.8184 14.6138H5.14425L4.59282 16.9926L3.52576 15.566C3.49711 15.529 3.47205 15.4882 3.44698 15.4438C3.42192 15.3993 3.40043 15.3548 3.37895 15.3104L3.00655 16.9074H2.68429Z" fill="#66686C"/>
</g>
<defs>
<clipPath id="clip0_237_1435">
<rect width="44" height="17" fill="white" transform="translate(0.5)"/>
</clipPath>
</defs>
</svg>
