<svg width="39" height="38" viewBox="0 0 39 38" fill="none" xmlns="http://www.w3.org/2000/svg">
<g clip-path="url(#clip0_338_371)">
<path d="M31.2368 30.9565C31.1575 30.7653 31.113 30.5554 31.113 30.3361C31.113 30.1168 31.1575 29.9068 31.2368 29.7157C31.3193 29.5246 31.4368 29.3491 31.5828 29.205L31.5923 29.1924C31.6748 29.111 31.77 29.0327 31.8716 28.9731C31.9255 28.9387 31.9827 28.9073 32.0461 28.8791V26.3036H29.3452C29.2627 26.8676 28.9897 27.3752 28.5962 27.7668C28.1042 28.2525 27.4219 28.5533 26.6697 28.5533H25.0415V35.578H29.8181C29.8435 35.5373 29.8689 35.4965 29.8975 35.4558C29.9546 35.3743 30.0181 35.2991 30.0879 35.2302C30.2371 35.083 30.418 34.9608 30.6211 34.8793C30.8147 34.801 31.0273 34.7571 31.2495 34.7571C31.4685 34.7571 31.6843 34.801 31.8779 34.8793C32.0811 34.9608 32.2588 35.083 32.4111 35.2302C32.5603 35.3775 32.6841 35.5561 32.7666 35.7566C32.8459 35.9477 32.8904 36.1576 32.8904 36.377C32.8904 36.5932 32.8459 36.8 32.7666 36.9974C32.6841 37.1979 32.5603 37.3765 32.4111 37.5237C32.262 37.671 32.0811 37.7932 31.8779 37.8747C31.6843 37.953 31.4717 37.9969 31.2495 37.9969C31.0337 37.9969 30.8274 37.9561 30.6338 37.8778L30.6211 37.8747C30.418 37.7932 30.2402 37.671 30.0879 37.5237C29.9959 37.4329 29.9133 37.3264 29.8435 37.2167C29.8054 37.154 29.7705 37.0851 29.7419 37.0193H24.3115C24.1084 37.0193 23.9275 36.9378 23.7942 36.8062C23.6577 36.6715 23.5752 36.4929 23.5752 36.2924V28.5533H20.0205V34.9263C20.0745 34.9545 20.1284 34.9827 20.1824 35.0172C20.2808 35.0767 20.3728 35.1519 20.4521 35.2302C20.6045 35.3806 20.7251 35.5561 20.8076 35.7566C20.887 35.9477 20.9314 36.1576 20.9314 36.377C20.9314 36.59 20.8901 36.7937 20.8108 36.9848L20.8076 36.9974C20.7251 37.1979 20.6013 37.3734 20.4521 37.5237C20.303 37.671 20.1221 37.7932 19.9189 37.8747C19.7253 37.953 19.5127 37.9969 19.2905 37.9969C19.0715 37.9969 18.8589 37.953 18.6621 37.8747C18.459 37.7932 18.2781 37.671 18.1289 37.5237C17.9797 37.3765 17.856 37.1979 17.7734 36.9974C17.6941 36.8062 17.6497 36.5963 17.6497 36.377C17.6497 36.1639 17.6909 35.9603 17.7703 35.7691L17.7734 35.7566C17.856 35.5561 17.9797 35.3806 18.1289 35.2302C18.2083 35.1519 18.2939 35.0829 18.3892 35.0234L18.4019 35.014C18.4526 34.9858 18.5066 34.9576 18.5605 34.9294V28.5533H13.8188V31.8557C13.8188 32.0562 13.7363 32.2348 13.603 32.3664C13.4697 32.498 13.2888 32.5795 13.0857 32.5795H9.72144C9.69604 32.6296 9.66748 32.6766 9.63574 32.7267C9.57861 32.8113 9.51196 32.8928 9.43579 32.968L9.4231 32.9805C9.27393 33.1278 9.09302 33.25 8.88989 33.3315C8.69629 33.4098 8.48364 33.4537 8.26147 33.4537C8.04565 33.4537 7.83936 33.4129 7.64575 33.3346L7.63306 33.3315C7.42993 33.25 7.2522 33.1278 7.09985 32.9805C6.95068 32.8333 6.8269 32.6547 6.74438 32.4542C6.66504 32.263 6.62061 32.0531 6.62061 31.8338C6.62061 31.6176 6.66504 31.4077 6.74438 31.2134C6.8269 31.0129 6.95068 30.8343 7.09985 30.687C7.25537 30.5429 7.43945 30.4207 7.64258 30.3392C7.83618 30.2609 8.04883 30.217 8.271 30.217C8.49316 30.217 8.70581 30.2609 8.89941 30.3392C9.09302 30.4207 9.27075 30.5366 9.41675 30.6839L9.42944 30.6933C9.51196 30.7747 9.59131 30.8687 9.65161 30.969C9.68335 31.0223 9.71826 31.0787 9.74683 31.1413H12.3557V28.4937C11.8384 28.3809 11.375 28.124 11.0164 27.77C10.5371 27.2968 10.2419 26.6514 10.2419 25.9433V24.2231H2.45337V28.9387C2.49463 28.9637 2.53589 28.9888 2.57715 29.017C2.65967 29.0734 2.73267 29.136 2.80566 29.205C2.95483 29.3522 3.07861 29.5308 3.16113 29.7314C3.24048 29.9225 3.28491 30.1324 3.28491 30.3517C3.28491 30.5679 3.24048 30.781 3.16113 30.9721C3.07861 31.1727 2.95483 31.3481 2.80566 31.4985C2.65649 31.6458 2.47559 31.768 2.27246 31.8494C2.07886 31.9278 1.86621 31.9716 1.64404 31.9716C1.42505 31.9716 1.21558 31.9278 1.01562 31.8494C0.8125 31.768 0.631592 31.6458 0.482422 31.4985C0.333252 31.3513 0.209473 31.1727 0.126953 30.9721C0.0444336 30.7747 0 30.5648 0 30.3455C0 30.1324 0.0412598 29.9288 0.120605 29.7376L0.123779 29.7251C0.206299 29.5246 0.330078 29.3491 0.479248 29.1987C0.571289 29.1079 0.679199 29.0264 0.790283 28.9575C0.850586 28.9199 0.923584 28.8854 0.990234 28.8572V23.4993C0.990234 23.2988 1.07275 23.1202 1.20605 22.9886C1.34253 22.8539 1.52344 22.7724 1.72656 22.7724H10.2419V19.2632H3.11353C3.08496 19.3165 3.0564 19.3697 3.02148 19.423C2.96118 19.5201 2.88501 19.611 2.80566 19.6893C2.65332 19.8397 2.47559 19.9588 2.27246 20.0402C2.07886 20.1186 1.86621 20.1624 1.64404 20.1624C1.42822 20.1624 1.22192 20.1217 1.02832 20.0434L1.01562 20.0402C0.8125 19.9588 0.634766 19.8366 0.482422 19.6893C0.333252 19.5421 0.209473 19.3635 0.126953 19.1629C0.0476074 18.9718 0.00317383 18.7619 0.00317383 18.5425C0.00317383 18.3264 0.0476074 18.1164 0.126953 17.9222C0.209473 17.7216 0.333252 17.543 0.482422 17.3958C0.631592 17.2485 0.8125 17.1263 1.01562 17.0449C1.2124 16.9634 1.42188 16.9195 1.64722 16.9195C1.86304 16.9195 2.06934 16.9603 2.26294 17.0386L2.27563 17.0417C2.47876 17.1232 2.65649 17.2454 2.80884 17.3926C2.88818 17.471 2.95801 17.5556 3.02148 17.6496L3.03101 17.6621C3.05957 17.7122 3.08813 17.7655 3.1167 17.8188H10.2419V13.4604C10.2419 13.3539 10.2483 13.2474 10.261 13.1408H6.22388C6.02075 13.1408 5.83984 13.0594 5.70654 12.9278C5.57324 12.7962 5.49072 12.6176 5.49072 12.4171V9.09581C5.43994 9.07075 5.39233 9.04255 5.34155 9.01121C5.25586 8.95482 5.17334 8.88902 5.09717 8.81382L5.08447 8.80129C4.9353 8.65402 4.81152 8.47543 4.729 8.2749C4.64966 8.08377 4.60522 7.87385 4.60522 7.65452C4.60522 7.44146 4.64648 7.2378 4.72583 7.04667L4.729 7.03414C4.81152 6.83361 4.9353 6.65815 5.08447 6.50775C5.23364 6.36049 5.41455 6.23829 5.61768 6.15683C5.81128 6.0785 6.02393 6.03463 6.24609 6.03463C6.46509 6.03463 6.67773 6.0785 6.87451 6.15683C7.07764 6.23829 7.25854 6.36049 7.40771 6.50775C7.55371 6.66128 7.67749 6.84301 7.76001 7.04354C7.83936 7.23466 7.88379 7.44459 7.88379 7.66392C7.88379 7.88324 7.83936 8.09317 7.76001 8.2843C7.67749 8.47543 7.56006 8.65089 7.41406 8.79502L7.40454 8.80755C7.32202 8.88902 7.22681 8.96735 7.12207 9.02688C7.06812 9.05821 7.01099 9.09268 6.94751 9.12088V11.6964H10.9307V11.7152C10.9561 11.687 10.9846 11.6588 11.01 11.6337C11.502 11.1481 12.1843 10.8473 12.9365 10.8473H14.4631V2.422H9.69287C9.66748 2.46273 9.64209 2.50346 9.61353 2.5442C9.5564 2.62566 9.49292 2.69772 9.4231 2.76979C9.27393 2.91705 9.09302 3.03925 8.88989 3.12071C8.69629 3.19904 8.48364 3.24291 8.26147 3.24291C8.04248 3.24291 7.82666 3.19904 7.63306 3.12071C7.42993 3.03925 7.2522 2.91705 7.09985 2.76979C6.95068 2.62253 6.8269 2.44393 6.74438 2.2434C6.66504 2.04914 6.62061 1.84235 6.62061 1.61989C6.62061 1.40369 6.66504 1.1969 6.74438 0.999505C6.8269 0.798978 6.95068 0.620383 7.09985 0.47312C7.24902 0.325858 7.42993 0.203661 7.63306 0.122197C7.82666 0.0438654 8.03931 0 8.26147 0C8.47729 0 8.68359 0.0407322 8.8772 0.119063L8.88989 0.122197C9.09302 0.203661 9.27075 0.325858 9.4231 0.47312C9.51514 0.563984 9.59766 0.670515 9.66748 0.780178C9.70557 0.83971 9.74048 0.911774 9.77222 0.977573H15.1963C15.3994 0.977573 15.5803 1.05904 15.7136 1.19063C15.8501 1.32536 15.9326 1.50396 15.9326 1.70449V10.8473H19.4873V3.07371C19.4333 3.04551 19.3794 3.01732 19.3254 2.98285C19.2271 2.92332 19.135 2.84812 19.0557 2.76979C18.9033 2.61939 18.7827 2.44393 18.7002 2.2434C18.6208 2.05228 18.5764 1.84235 18.5764 1.62302C18.5764 1.40996 18.6177 1.2063 18.697 1.01517L18.7002 1.00264C18.7827 0.802111 18.9065 0.626649 19.0557 0.476253C19.2048 0.328991 19.3857 0.206794 19.5889 0.12533C19.7825 0.0469987 19.9951 0.00313325 20.2173 0.00313325C20.4363 0.00313325 20.6489 0.0469987 20.8457 0.12533C21.0488 0.206794 21.2297 0.328991 21.3789 0.476253C21.5281 0.623516 21.6519 0.802111 21.7344 1.00264C21.8137 1.19377 21.8582 1.40369 21.8582 1.62302C21.8582 1.83608 21.8169 2.03974 21.7375 2.23087L21.7344 2.2434C21.6519 2.44393 21.5281 2.61939 21.3789 2.76979C21.2996 2.84812 21.2139 2.91705 21.1187 2.97972L21.106 2.98912C21.0552 3.01732 21.0012 3.04551 20.9473 3.07371V10.8442H25.6858V6.14429C25.6858 5.94377 25.7683 5.76517 25.9016 5.63357C26.0349 5.50198 26.2158 5.42051 26.4189 5.42051H29.7864C29.8118 5.37038 29.8403 5.32338 29.8721 5.27325C29.9292 5.18865 29.9958 5.10719 30.072 5.03199L30.0847 5.01946C30.2339 4.8722 30.4148 4.75 30.6179 4.66854C30.8115 4.5902 31.0242 4.54634 31.2463 4.54634C31.4622 4.54634 31.6685 4.58707 31.8621 4.6654L31.8748 4.66854C32.0779 4.75 32.2556 4.8722 32.408 5.01946C32.5571 5.16672 32.6809 5.34532 32.7634 5.54584C32.8428 5.73697 32.8872 5.9469 32.8872 6.16623C32.8872 6.38242 32.8428 6.59235 32.7634 6.78661C32.6809 6.98714 32.5571 7.16573 32.408 7.31299C32.2493 7.45712 32.0684 7.57932 31.8652 7.66079C31.6716 7.73912 31.459 7.78298 31.2368 7.78298C31.0146 7.78298 30.802 7.73912 30.6084 7.66079C30.4148 7.57932 30.2371 7.46339 30.0911 7.31926L30.0784 7.30986C29.9958 7.2284 29.9165 7.1344 29.8562 7.03414C29.8213 6.98087 29.7895 6.92447 29.761 6.86181H27.1521V10.8849C27.7139 10.982 28.2153 11.2515 28.5994 11.6306C29.0786 12.1037 29.3738 12.7492 29.3738 13.4573V13.78H36.5466V9.06448C36.5054 9.03941 36.4641 9.01435 36.4229 8.98615C36.3403 8.92975 36.2673 8.86708 36.1975 8.79815C36.0483 8.65089 35.9246 8.4723 35.842 8.27177C35.7627 8.08064 35.7183 7.87071 35.7183 7.65139C35.7183 7.43519 35.7627 7.22213 35.842 7.031C35.9246 6.83048 36.0483 6.65501 36.1975 6.50462C36.3467 6.35736 36.5276 6.23516 36.7307 6.15369C36.9243 6.07536 37.137 6.0315 37.3591 6.0315C37.5781 6.0315 37.7908 6.07536 37.9875 6.15369C38.1907 6.23516 38.3716 6.35736 38.5208 6.50462C38.6699 6.65188 38.7937 6.83048 38.8762 7.031C38.9556 7.22213 39 7.43206 39 7.65139C39 7.86445 38.9587 8.06811 38.8794 8.25924L38.8762 8.27177C38.7937 8.4723 38.6699 8.64776 38.5208 8.79815C38.4287 8.88902 38.3208 8.97048 38.2097 9.03941C38.1462 9.07701 38.0764 9.11148 38.0098 9.14281V14.4975C38.0098 14.6981 37.9272 14.8766 37.7939 15.0082C37.6575 15.143 37.4766 15.2244 37.2734 15.2244H29.3738V18.7337H35.8865C35.915 18.6804 35.9436 18.6271 35.9785 18.5739C36.042 18.4767 36.115 18.3859 36.1943 18.3076C36.3467 18.1572 36.5244 18.0381 36.7275 17.9566C36.9211 17.8783 37.1338 17.8344 37.356 17.8344C37.5718 17.8344 37.7781 17.8752 37.9717 17.9535L37.9844 17.9566C38.1875 18.0381 38.3652 18.1603 38.5176 18.3076C38.6667 18.4548 38.7905 18.6334 38.873 18.8339C38.9524 19.0251 38.9968 19.235 38.9968 19.4543C38.9968 19.6705 38.9524 19.8804 38.873 20.0747C38.7905 20.2752 38.6667 20.4538 38.5176 20.6011C38.3684 20.7484 38.1875 20.8705 37.9844 20.952C37.7908 21.0303 37.5781 21.0742 37.356 21.0742C37.1401 21.0742 36.9338 21.0335 36.7402 20.9551L36.7275 20.952C36.5244 20.8705 36.3467 20.7484 36.1943 20.6011C36.115 20.5228 36.0452 20.4382 35.9817 20.3442L35.9722 20.3316C35.9436 20.2815 35.915 20.2282 35.8865 20.175H29.3738V24.8529H32.7761C32.9792 24.8529 33.1602 24.9344 33.2935 25.066C33.4268 25.1976 33.5093 25.3762 33.5093 25.5767V28.9011C33.5601 28.9261 33.6077 28.9543 33.6584 28.9888C33.7441 29.0452 33.8267 29.111 33.9028 29.1862L33.9155 29.1987C34.0647 29.346 34.1885 29.5246 34.271 29.7251C34.3503 29.9162 34.3948 30.1262 34.3948 30.3455C34.3948 30.5585 34.3535 30.7622 34.2742 30.9533L34.271 30.9659C34.1885 31.1664 34.0647 31.3419 33.9155 31.4923C33.7664 31.6395 33.5854 31.7617 33.3823 31.8432C33.1887 31.9215 32.9761 31.9654 32.7539 31.9654C32.5349 31.9654 32.3223 31.9215 32.1255 31.8432C31.9224 31.7617 31.7415 31.6395 31.5923 31.4923C31.4463 31.3387 31.3193 31.157 31.2368 30.9565ZM16.9768 16.3367H22.6389C23.0801 16.3367 23.4387 16.6908 23.4387 17.1263V22.2742C23.4387 22.7098 23.0801 23.0638 22.6389 23.0638H16.9768C16.5356 23.0638 16.177 22.7098 16.177 22.2742V17.1263C16.177 16.6908 16.5356 16.3367 16.9768 16.3367ZM26.6729 12.2447H12.9397C12.6255 12.2447 12.3367 12.3732 12.1272 12.5831C11.9019 12.8056 11.7622 13.1158 11.7622 13.4604V25.9401C11.7622 26.2848 11.9019 26.595 12.1272 26.8174C12.3398 27.0274 12.6255 27.1558 12.9397 27.1558H26.6729C26.9871 27.1558 27.2759 27.0274 27.4854 26.8174C27.7107 26.595 27.8503 26.2848 27.8503 25.9401V13.4604C27.8503 13.1158 27.7107 12.8056 27.4854 12.5831C27.2759 12.3732 26.9871 12.2447 26.6729 12.2447Z" fill="#042B26"/>
</g>
<defs>
<clipPath id="clip0_338_371">
<rect width="39" height="38" fill="white"/>
</clipPath>
</defs>
</svg>
