<svg width="46" height="49" viewBox="0 0 46 49" fill="none" xmlns="http://www.w3.org/2000/svg">
<path d="M1.16847 23.8939C1.02037 23.8989 0.872729 23.875 0.733978 23.8237C0.595228 23.7724 0.468088 23.6946 0.359823 23.5948C0.250061 23.4916 0.162107 23.3681 0.101038 23.2312C0.0399692 23.0943 0.0069945 22.9468 0.00401738 22.7973C-0.000833715 22.6503 0.0237992 22.5039 0.0765016 22.3663C0.129204 22.2288 0.208938 22.1028 0.311125 21.9957C0.413312 21.8887 0.53594 21.8025 0.671966 21.7423C0.807993 21.6821 0.95474 21.649 1.10378 21.6449L4.60119 21.5253C4.90056 21.518 5.19088 21.6268 5.40984 21.8283C5.57257 21.9801 5.68619 22.1759 5.73644 22.3911C5.78669 22.6063 5.77132 22.8314 5.69225 23.0381C5.61319 23.2447 5.47397 23.4237 5.29208 23.5526C5.11018 23.6814 4.89373 23.7544 4.66992 23.7623L1.16847 23.878V23.8939ZM27.5345 16.118C27.829 16.1134 28.122 16.1606 28.3997 16.2576C28.9685 16.4541 29.4728 16.7985 29.8593 17.2545C30.283 17.7389 30.5493 18.3377 30.6235 18.9732C30.6573 19.2927 30.6409 19.6155 30.575 19.9302C30.8664 20.1844 31.116 20.4817 31.3149 20.8115C31.5963 21.2845 31.7365 21.8264 31.7192 22.3746C31.6987 22.9525 31.4966 23.5099 31.141 23.9697C30.872 24.3213 30.5438 24.6247 30.1707 24.8669C30.2152 25.6452 29.9977 26.4162 29.5521 27.0601C29.1423 27.6961 28.494 28.1462 27.7488 28.3122C27.5498 28.9914 27.0969 29.5709 26.4815 29.9336C25.8661 30.2963 25.1341 30.4151 24.4333 30.2661C24.1201 30.1789 23.8291 30.0271 23.5796 29.8209C23.3301 29.6147 23.1277 29.3588 22.9858 29.0698C22.8171 29.3815 22.5819 29.6534 22.2965 29.8668C22.011 30.0802 21.682 30.2301 21.3321 30.306C20.9673 30.3736 20.592 30.3626 20.2319 30.2738C19.8718 30.1851 19.5354 30.0206 19.2458 29.7916C18.7608 29.427 18.4262 28.9014 18.3037 28.3122C18.0545 28.3019 17.808 28.2563 17.5719 28.1766C17.0172 27.9825 16.5237 27.6484 16.1406 27.2076C15.728 26.7428 15.4587 26.1714 15.3643 25.5607C15.3142 25.2117 15.3265 24.8568 15.4007 24.512C15.1382 24.2793 14.9108 24.0107 14.7255 23.7145C14.4232 23.2359 14.2635 22.6832 14.2645 22.1194C14.2758 21.5153 14.4811 20.9303 14.8508 20.4486C15.1073 20.1109 15.4172 19.816 15.7686 19.5753C15.7686 19.4676 15.7686 19.356 15.7686 19.2483C15.7964 18.4791 16.0806 17.7405 16.5773 17.1468C17.0056 16.6072 17.6227 16.2446 18.3078 16.13C18.3294 16.0268 18.3591 15.9255 18.3967 15.8269C18.6175 15.265 19.0271 14.7949 19.5571 14.4951C20.09 14.18 20.7223 14.0706 21.3321 14.188C21.663 14.2583 21.9753 14.396 22.249 14.5924C22.5226 14.7889 22.7516 15.0396 22.9211 15.3285C23.0923 15.0401 23.3222 14.7898 23.5964 14.5935C23.8706 14.3972 24.1831 14.2591 24.5142 14.188C25.0643 14.0838 25.634 14.1653 26.1315 14.4193C26.6226 14.6629 27.0283 15.0463 27.2959 15.5199C27.3975 15.7059 27.4736 15.9043 27.5223 16.1101L27.5345 16.118ZM23.56 16.4729V27.4429C23.6113 27.5112 23.6459 27.5904 23.661 27.6742C23.8187 28.6312 24.2392 29.0938 24.7163 29.2214C24.9483 29.2708 25.1884 29.2693 25.4197 29.2169C25.651 29.1645 25.8678 29.0626 26.0546 28.9183C26.248 28.797 26.41 28.6329 26.5279 28.4391C26.6458 28.2453 26.7164 28.0271 26.7339 27.8018C26.7339 27.3153 26.3781 26.761 25.4077 26.2745C25.3394 26.2463 25.2777 26.2044 25.2265 26.1515C25.1754 26.0987 25.1358 26.0359 25.1104 25.9673C25.085 25.8986 25.0742 25.8255 25.0788 25.7526C25.0834 25.6797 25.1032 25.6084 25.137 25.5434C25.1708 25.4784 25.2179 25.4209 25.2753 25.3747C25.3327 25.3284 25.3991 25.2944 25.4705 25.2747C25.5418 25.2549 25.6165 25.25 25.6899 25.2601C25.7633 25.2702 25.8338 25.2952 25.897 25.3334C26.9725 25.8718 27.5143 26.5297 27.7245 27.2116C28.1181 27.0732 28.4547 26.8112 28.6828 26.4659C29.0385 25.957 29.1911 25.3364 29.1113 24.7233C29.0874 24.6139 29.0991 24.4999 29.1448 24.3974C29.1906 24.295 29.268 24.2095 29.3661 24.1531C29.7318 23.9532 30.0523 23.6818 30.3081 23.3556C30.5341 23.0697 30.6628 22.7209 30.6761 22.3587C30.681 22.0063 30.5858 21.6595 30.4011 21.3578C30.2165 21.0468 29.9704 20.7755 29.6774 20.5602C29.5749 20.4961 29.497 20.4002 29.456 20.2875C29.415 20.1749 29.4132 20.0519 29.451 19.9382C29.5506 19.6596 29.5851 19.3624 29.5521 19.0689C29.4948 18.6529 29.3164 18.2623 29.0386 17.9444C28.7784 17.6359 28.4391 17.4018 28.0561 17.2665C27.8786 17.2039 27.6903 17.1768 27.5021 17.1867C27.399 17.5326 27.2211 17.8523 26.9806 18.1238C26.9384 18.1849 26.8837 18.2365 26.82 18.2754C26.7563 18.3142 26.685 18.3394 26.6108 18.3493C26.5366 18.3592 26.4611 18.3536 26.3892 18.3328C26.3173 18.3121 26.2507 18.2766 26.1936 18.2288C26.1366 18.1809 26.0903 18.1218 26.058 18.0552C26.0256 17.9885 26.0078 17.916 26.0058 17.8421C26.0037 17.7683 26.0175 17.6948 26.0461 17.6266C26.0747 17.5583 26.1176 17.4968 26.1719 17.4459C26.3541 17.2627 26.4717 17.0266 26.5073 16.7724C26.543 16.5182 26.4949 16.2594 26.37 16.0343C26.2103 15.7498 25.9663 15.5202 25.6705 15.3763C25.3866 15.2284 25.0604 15.1792 24.7446 15.2368C24.2877 15.3285 23.847 15.7033 23.5721 16.4769L23.56 16.4729ZM26.3013 20.0618C26.1942 19.9764 26.1244 19.8537 26.1064 19.719C26.0883 19.5843 26.1234 19.448 26.2043 19.338C26.2851 19.2281 26.4057 19.1529 26.5411 19.1281C26.6765 19.1032 26.8165 19.1306 26.932 19.2045C27.0452 19.2842 27.1463 19.3679 27.2434 19.4517C27.928 20.054 28.3497 20.8943 28.4199 21.7964C28.4913 22.6867 28.2358 23.5726 27.7002 24.2927C27.6234 24.3963 27.5345 24.5 27.4334 24.6117C27.338 24.7174 27.2038 24.7815 27.0605 24.7897C26.9172 24.7979 26.7765 24.7497 26.6692 24.6555C26.562 24.5614 26.4971 24.4291 26.4887 24.2878C26.4804 24.1465 26.5293 24.0076 26.6247 23.9019C26.692 23.828 26.7554 23.7508 26.8148 23.6706C27.1989 23.1539 27.3838 22.5191 27.3364 21.8801C27.2907 21.2516 27.0011 20.6645 26.5277 20.2412C26.4574 20.1769 26.3832 20.117 26.3053 20.0618H26.3013ZM22.4804 17.0272L22.4562 16.9873C22.1974 15.9545 21.692 15.48 21.1704 15.3923C20.819 15.3305 20.4567 15.3971 20.1515 15.5797C19.844 15.7037 19.5837 15.9199 19.4076 16.1978C19.3249 16.4574 19.3265 16.7361 19.412 16.9948C19.4975 17.2536 19.6627 17.4795 19.8847 17.6413C19.9892 17.737 20.0509 17.8698 20.0562 18.0104C20.0615 18.1509 20.01 18.2879 19.913 18.391C19.8649 18.442 19.8071 18.4833 19.7429 18.5123C19.6787 18.5413 19.6093 18.5576 19.5388 18.5602C19.3962 18.5654 19.2574 18.5146 19.1528 18.4189C18.7783 18.0998 18.4988 17.6863 18.3442 17.2226C17.9693 17.322 17.6381 17.5407 17.4021 17.8447C17.0619 18.2588 16.8687 18.7714 16.8522 19.3041C16.848 19.4655 16.8574 19.6269 16.8805 19.7866C16.8939 19.8883 16.8774 19.9915 16.833 20.0841C16.7885 20.1768 16.718 20.2548 16.6298 20.309C16.2753 20.5149 15.9637 20.7856 15.712 21.1066C15.4769 21.4094 15.3452 21.778 15.336 22.1593C15.3375 22.521 15.4426 22.8748 15.6392 23.1801C15.8159 23.4585 16.0451 23.7008 16.3145 23.8939C16.4106 23.9603 16.4823 24.0557 16.5188 24.1657C16.5552 24.2757 16.5545 24.3944 16.5166 24.504C16.4133 24.8011 16.3815 25.1178 16.4236 25.4291C16.4891 25.8402 16.6713 26.2246 16.9493 26.5377C17.2077 26.8345 17.539 27.0611 17.9115 27.1957C18.0539 27.2426 18.2023 27.2695 18.3523 27.2754C18.5625 26.5895 19.1609 25.8997 20.2445 25.3454C20.3076 25.3072 20.3781 25.2822 20.4515 25.2721C20.5249 25.262 20.5996 25.2669 20.671 25.2866C20.7424 25.3063 20.8088 25.3404 20.8662 25.3866C20.9236 25.4329 20.9707 25.4903 21.0045 25.5554C21.0383 25.6204 21.0581 25.6916 21.0627 25.7646C21.0672 25.8375 21.0565 25.9106 21.0311 25.9793C21.0056 26.0479 20.9661 26.1106 20.9149 26.1635C20.8638 26.2164 20.8021 26.2582 20.7337 26.2865C19.7148 26.8009 19.3307 27.3911 19.3307 27.9094C19.3404 28.114 19.3967 28.3138 19.4954 28.494C19.5941 28.6741 19.7327 28.8301 19.9008 28.9502C20.0688 29.0846 20.2638 29.1822 20.4729 29.2365C20.6821 29.2908 20.9005 29.3006 21.1138 29.2652C21.6354 29.1576 22.1408 28.683 22.3996 27.6463C22.4156 27.5835 22.443 27.524 22.4804 27.4708V17.0272ZM18.4857 19.5673C18.5369 19.5186 18.5974 19.4804 18.6636 19.4547C18.7299 19.429 18.8006 19.4165 18.8717 19.4178C18.9429 19.4191 19.0131 19.4342 19.0783 19.4623C19.1435 19.4903 19.2025 19.5307 19.2519 19.5813C19.3013 19.6318 19.3401 19.6914 19.3661 19.7568C19.3921 19.8221 19.4048 19.8918 19.4035 19.962C19.4022 20.0322 19.3869 20.1014 19.3584 20.1657C19.33 20.2301 19.289 20.2882 19.2377 20.3369C18.7822 20.7766 18.5145 21.3716 18.4897 21.9998C18.4639 22.6545 18.6826 23.2959 19.1043 23.8022C19.1938 23.9122 19.2354 24.0527 19.2199 24.193C19.2043 24.3332 19.1329 24.4616 19.0214 24.5499C18.9662 24.5936 18.9028 24.6262 18.8348 24.6457C18.7668 24.6653 18.6956 24.6714 18.6252 24.6638C18.483 24.6485 18.3528 24.5781 18.2633 24.4681C17.6762 23.7532 17.3742 22.8512 17.4142 21.932C17.4467 21.0284 17.8303 20.1717 18.4857 19.5394V19.5673ZM18.0248 40.7456C17.7951 40.7517 17.5715 40.6723 17.3986 40.5232C17.2256 40.374 17.116 40.1661 17.0915 39.9408C17.067 39.7155 17.1295 39.4893 17.2665 39.3074C17.4035 39.1255 17.6049 39.0012 17.8307 38.9592C17.3091 36.0362 15.8818 34.4292 14.3737 32.7265C13.2012 31.4026 11.9842 30.0269 11.0219 28.0012C10.0727 26.0693 9.57791 23.9511 9.57438 21.8044C9.62246 19.4879 10.2295 17.216 11.3453 15.1769L11.3696 15.1371C12.7818 12.7185 14.9694 10.8317 17.5881 9.77371C19.6387 8.96088 21.8578 8.64764 24.0573 8.86054C26.2379 9.05565 28.3477 9.72427 30.2354 10.8185C32.6551 12.1916 34.5513 14.3096 35.6331 16.8478C36.2557 18.3364 36.6009 19.9237 36.652 21.5332C36.6932 23.4193 36.3366 25.2932 35.6048 27.0362C34.5333 29.6481 33.1182 31.271 31.7961 32.7903C30.5831 34.186 29.4429 35.4899 28.8121 37.4837C29.0177 37.5337 29.1993 37.6525 29.3259 37.8199C29.4525 37.9873 29.5163 38.1929 29.5062 38.4014C29.4962 38.61 29.413 38.8087 29.271 38.9635C29.1289 39.1184 28.9367 39.2197 28.7272 39.2503L28.4199 39.2941C28.3633 39.7288 28.3269 40.1913 28.3108 40.6898H28.4119C28.5308 40.6736 28.6518 40.6806 28.768 40.7105C28.8842 40.7404 28.9932 40.7925 29.089 40.864C29.1847 40.9355 29.2653 41.0248 29.326 41.127C29.3867 41.2292 29.4264 41.3421 29.4429 41.4594C29.4593 41.5767 29.4522 41.6961 29.4219 41.8106C29.3916 41.9252 29.3387 42.0328 29.2662 42.1272C29.1938 42.2217 29.1032 42.3011 28.9996 42.361C28.896 42.4208 28.7815 42.46 28.6625 42.4763L28.3512 42.5201V42.6996C28.3753 43.0354 28.3753 43.3726 28.3512 43.7084H28.4038C28.6381 43.6927 28.8697 43.7662 29.0508 43.9137C29.2319 44.0613 29.3487 44.2717 29.3772 44.5017C29.4057 44.7317 29.3437 44.9637 29.204 45.1499C29.0643 45.3362 28.8575 45.4625 28.6262 45.5029L27.9469 45.5826C27.5053 46.7408 26.6729 47.7138 25.5897 48.3381C24.901 48.7332 24.1286 48.9653 23.3335 49.016C22.5355 49.0545 21.7408 48.8911 21.0248 48.5414C20.1194 48.0953 19.3764 47.3835 18.8981 46.5038C18.7643 46.4371 18.6492 46.3389 18.5632 46.2179C18.4771 46.0968 18.4227 45.9567 18.4048 45.8099C18.3896 45.691 18.3992 45.5702 18.4331 45.455C18.2652 44.9627 18.1474 44.4551 18.0814 43.9397H18.0531C17.8129 43.9725 17.5693 43.9098 17.3759 43.7655C17.2802 43.694 17.1997 43.6047 17.1389 43.5025C17.0782 43.4004 17.0385 43.2874 17.022 43.1701C17.0056 43.0528 17.0127 42.9335 17.043 42.8189C17.0733 42.7043 17.1262 42.5967 17.1987 42.5023C17.345 42.3116 17.5622 42.186 17.8024 42.1533L18.0207 42.1254C18.0207 41.6349 18.0207 41.1763 18.0207 40.7416L18.0248 40.7456ZM19.5329 38.7199L26.9684 37.6791C27.6073 35.0194 28.99 33.4243 30.5022 31.6977C31.7395 30.2781 33.0616 28.7628 34.0239 26.4101C34.6707 24.8802 34.9874 23.2343 34.9538 21.5771C34.9074 20.1681 34.6019 18.7791 34.0522 17.4778C33.1132 15.2812 31.468 13.4499 29.3701 12.266C27.7021 11.2959 25.8363 10.7034 23.9077 10.5314C21.9766 10.3436 20.0281 10.6171 18.2269 11.3289C15.96 12.2491 14.0662 13.8842 12.8413 15.9785C11.8588 17.7749 11.3225 19.7757 11.2766 21.8163C11.2814 23.7136 11.7209 25.5852 12.5623 27.2914C13.37 28.8781 14.4124 30.3376 15.6554 31.6219C17.3576 33.544 18.9668 35.3623 19.5329 38.7199ZM26.6854 39.5414L19.7229 40.5143C19.7229 40.949 19.7512 41.4076 19.7229 41.8901L26.5964 40.9291C26.5964 40.4386 26.6247 39.976 26.6652 39.5414H26.6854ZM19.8119 43.7045C19.8562 44.0445 19.9278 44.3805 20.0262 44.7093L26.6773 43.9118C26.7222 43.5506 26.7303 43.1859 26.7016 42.8232V42.7474L19.828 43.7124L19.8119 43.7045ZM20.9723 46.4121C21.2156 46.6647 21.5015 46.8738 21.8173 47.0301C22.2776 47.2489 22.7871 47.3477 23.2972 47.3172C23.8259 47.2814 24.3392 47.1259 24.7972 46.8627C25.2554 46.5984 25.6499 46.2392 25.9536 45.8099L20.9723 46.4121ZM44.7506 19.9382C44.8988 19.9227 45.0486 19.9363 45.1915 19.978C45.3344 20.0198 45.4675 20.089 45.5831 20.1816C45.6988 20.2742 45.7949 20.3885 45.8657 20.5178C45.9365 20.6471 45.9808 20.7889 45.9959 20.9351C46.0264 21.2307 45.9367 21.5261 45.7463 21.7564C45.556 21.9867 45.2808 22.1331 44.9811 22.1633L41.4998 22.5261C41.3513 22.5416 41.2012 22.5277 41.0582 22.4852C40.9151 22.4428 40.7822 22.3726 40.6669 22.2789C40.4891 22.1398 40.3575 21.9513 40.2893 21.7378C40.2211 21.5243 40.2192 21.2955 40.2841 21.081C40.3489 20.8664 40.4774 20.6759 40.653 20.5341C40.8286 20.3922 41.0433 20.3055 41.2694 20.2851L44.7506 19.9262V19.9382ZM38.2006 5.98147C38.3698 5.73619 38.6295 5.56589 38.9243 5.50694C39.07 5.47785 39.2202 5.47736 39.3661 5.50551C39.5121 5.53365 39.651 5.58988 39.7749 5.67098C39.8988 5.75207 40.0053 5.85645 40.0883 5.97815C40.1713 6.09984 40.2291 6.23647 40.2586 6.38023C40.2878 6.52395 40.2878 6.67197 40.2587 6.81571C40.2296 6.95945 40.1718 7.09606 40.0887 7.21763L38.1439 10.0887C38.0613 10.2117 37.9548 10.3173 37.8306 10.3994C37.7064 10.4815 37.5669 10.5386 37.4202 10.5672C37.1253 10.6217 36.8206 10.5601 36.5711 10.3958C36.4462 10.3146 36.3389 10.2097 36.2556 10.0871C36.1722 9.96457 36.1146 9.82683 36.0859 9.68199C36.0566 9.53804 36.0569 9.38974 36.0867 9.24589C36.1166 9.10205 36.1754 8.96558 36.2598 8.84459L38.2006 5.97349V5.98147ZM23.1678 1.09263C23.1721 0.791885 23.2971 0.505095 23.5155 0.295107C23.6783 0.143321 23.8829 0.0423746 24.1037 0.00495776C24.3244 -0.0324591 24.5515 -0.00467682 24.7563 0.0848124C24.9611 0.174302 25.1345 0.321504 25.2547 0.507916C25.375 0.694328 25.4366 0.911631 25.432 1.13251L25.3471 4.58181C25.3524 4.73412 25.3261 4.8859 25.2699 5.02786C25.2137 5.16983 25.1287 5.29899 25.0202 5.40745C24.9116 5.51591 24.7817 5.60138 24.6385 5.65865C24.4953 5.71592 24.3418 5.74378 24.1873 5.74052C24.0328 5.73726 23.8806 5.70296 23.74 5.6397C23.5994 5.57644 23.4734 5.48557 23.3696 5.37263C23.2659 5.25969 23.1866 5.12706 23.1366 4.98286C23.0866 4.83866 23.0669 4.68591 23.0788 4.53396L23.1678 1.08067V1.09263ZM5.66052 6.63544C5.4491 6.43095 5.32699 6.15313 5.32019 5.86116C5.31339 5.56919 5.42245 5.28613 5.62413 5.07229C5.82603 4.86546 6.10143 4.74395 6.39234 4.73334C6.69108 4.72545 6.98117 4.83274 7.20099 5.03241C8.04603 5.82994 8.91129 6.60753 9.76037 7.3891C9.87178 7.49147 9.96135 7.61474 10.0238 7.75169C10.0863 7.88863 10.1205 8.0365 10.1243 8.18663C10.131 8.48105 10.0224 8.76669 9.82102 8.98415C9.61367 9.19266 9.33198 9.3131 9.03594 9.3198C8.73989 9.3265 8.45289 9.21895 8.23606 9.02004C7.42742 8.25043 6.51769 7.3891 5.6686 6.65937L5.66052 6.63544Z" fill="black"/>
</svg>
